<svg xmlns="http://www.w3.org/2000/svg" viewBox="0 0 128 128" fill="none">
  <\!-- Background Circle -->
  <circle cx="64" cy="64" r="60" fill="url(#gradient)" stroke="#FFD700" stroke-width="4"/>
  
  <\!-- Grand Digital Architect Symbol - Infinity merged with Architecture -->
  <path d="M64 40 C48 40, 32 52, 32 64 C32 76, 48 88, 64 88 C80 88, 96 76, 96 64 C96 52, 80 40, 64 40 Z M64 88 C80 88, 96 76, 96 64 C96 52, 80 40, 64 40" 
        stroke="#FFFFFF" 
        stroke-width="3" 
        fill="none"
        stroke-linecap="round"/>
  
  <\!-- Central Diamond - Knowledge Crystal -->
  <path d="M64 45 L74 64 L64 83 L54 64 Z" 
        fill="#FFD700" 
        stroke="#FFFFFF" 
        stroke-width="2"/>
  
  <\!-- Wisdom Rays -->
  <path d="M64 35 L64 25 M64 93 L64 103 M35 64 L25 64 M93 64 L103 64" 
        stroke="#FFD700" 
        stroke-width="2" 
        stroke-linecap="round"
        opacity="0.8"/>
  
  <\!-- Corner Stars - Digital Nodes -->
  <circle cx="40" cy="40" r="2" fill="#87CEEB"/>
  <circle cx="88" cy="40" r="2" fill="#87CEEB"/>
  <circle cx="40" cy="88" r="2" fill="#87CEEB"/>
  <circle cx="88" cy="88" r="2" fill="#87CEEB"/>
  
  <\!-- Gradient Definition -->
  <defs>
    <linearGradient id="gradient" x1="0%" y1="0%" x2="100%" y2="100%">
      <stop offset="0%" style="stop-color:#6B46C1;stop-opacity:1" />
      <stop offset="100%" style="stop-color:#87CEEB;stop-opacity:1" />
    </linearGradient>
  </defs>
</svg>
